<?xml version="1.0" encoding="iso-8859-1"?>
<!-- Generator: Adobe Illustrator 19.0.0, SVG Export Plug-In . SVG Version: 6.00 Build 0)  -->
<svg version="1.1" id="Capa_1" xmlns="http://www.w3.org/2000/svg" xmlns:xlink="http://www.w3.org/1999/xlink" x="0px" y="0px"
	 viewBox="0 0 512.001 512.001" style="enable-background:new 0 0 512.001 512.001;" xml:space="preserve">
<path style="fill:#FFD681;" d="M402.269,512H109.772c-14.222,0-25.752-11.529-25.752-25.752V208.094
	c0-14.222,11.529-25.752,25.752-25.752h292.497c14.222,0,25.751,11.529,25.751,25.752v278.155
	C428.02,500.471,416.491,512,402.269,512z"/>
<path style="fill:#FFBD2A;" d="M402.272,182.342h-31.389c14.221,0,25.749,11.531,25.749,25.755v278.149
	c0,14.224-11.528,25.755-25.749,25.755h31.389c14.221,0,25.749-11.531,25.749-25.755V208.097
	C428.02,193.873,416.492,182.342,402.272,182.342z"/>
<g>
	<path style="fill:#7A666C;" d="M275.933,338.693c1.113,9.066-2.492,17.346-8.684,22.718c-0.899,0.78-1.418,1.909-1.418,3.1v35.132
		c0,8.534-6.918,15.453-15.453,15.453l0,0c-8.534,0-15.453-6.918-15.453-15.453v-35.132c0-1.187-0.513-2.315-1.41-3.093
		c-5.445-4.721-8.892-11.69-8.892-19.465c0-15.187,13.137-27.299,28.67-25.594C265.01,317.644,274.497,326.996,275.933,338.693z"/>
	<path style="fill:#7A666C;" d="M177.726,182.342V78.294C177.726,35.119,212.845,0,256.02,0s78.294,35.119,78.294,78.294v104.048
		h-30.905V78.294c0-26.136-21.263-47.388-47.388-47.388s-47.388,21.253-47.388,47.388v104.048H177.726z"/>
</g>
<path style="fill:#E75955;" d="M428.02,208.097v38.632h-344v-38.632c0-14.227,11.525-25.755,25.749-25.755h292.503
	C416.495,182.342,428.02,193.87,428.02,208.097z"/>
<path style="fill:#A85759;" d="M402.272,182.342h-30.898c14.224,0,25.749,11.528,25.749,25.755v38.632h30.898v-38.632
	C428.02,193.87,416.495,182.342,402.272,182.342z"/>
<path style="fill:#FF993B;" d="M215.843,182.342v64.386H83.98v-38.632c0-14.224,11.531-25.755,25.755-25.755h106.108V182.342z"/>
<g>
	<circle style="fill:#F1DB50;" cx="123.13" cy="214.28" r="7.726"/>
	<circle style="fill:#F1DB50;" cx="180.82" cy="214.28" r="7.726"/>
	<circle style="fill:#F1DB50;" cx="151.97" cy="214.28" r="7.726"/>
</g>
<g>
</g>
<g>
</g>
<g>
</g>
<g>
</g>
<g>
</g>
<g>
</g>
<g>
</g>
<g>
</g>
<g>
</g>
<g>
</g>
<g>
</g>
<g>
</g>
<g>
</g>
<g>
</g>
<g>
</g>
</svg>
